<svg xmlns="http://www.w3.org/2000/svg" viewBox="0 0 512 512">
  <defs>
    <linearGradient id="shieldGradient" x1="0%" y1="0%" x2="100%" y2="100%">
      <stop offset="0%" style="stop-color:#0ea5e9;stop-opacity:1" />
      <stop offset="100%" style="stop-color:#0369a1;stop-opacity:1" />
    </linearGradient>
    <linearGradient id="cameraGradient" x1="0%" y1="0%" x2="100%" y2="100%">
      <stop offset="0%" style="stop-color:#1e293b;stop-opacity:1" />
      <stop offset="100%" style="stop-color:#0f172a;stop-opacity:1" />
    </linearGradient>
    <filter id="shadow" x="-20%" y="-20%" width="140%" height="140%">
      <feDropShadow dx="0" dy="4" stdDeviation="8" flood-color="#000" flood-opacity="0.25"/>
    </filter>
  </defs>
  
  <path d="M256 32C192 32 128 64 96 96L96 256C96 352 160 432 256 480C352 432 416 352 416 256L416 96C384 64 320 32 256 32Z" 
        fill="url(#shieldGradient)" 
        stroke="#0284c7" 
        stroke-width="8"
        filter="url(#shadow)"/>
  
  <path d="M256 56C200 56 144 84 116 112L116 256C116 340 172 412 256 456C340 412 396 340 396 256L396 112C368 84 312 56 256 56Z" 
        fill="#fff" 
        opacity="0.15"/>
  
  <g transform="translate(256, 280)">
    <ellipse cx="0" cy="0" rx="80" ry="55" fill="url(#cameraGradient)" stroke="#334155" stroke-width="4"/>
    <circle cx="0" cy="0" r="35" fill="#475569" stroke="#64748b" stroke-width="3"/>
    <circle cx="0" cy="0" r="20" fill="#94a3b8"/>
    <circle cx="-8" cy="-8" r="6" fill="#fff" opacity="0.6"/>
    <rect x="-100" y="-30" width="40" height="60" rx="8" fill="url(#cameraGradient)" stroke="#334155" stroke-width="3"/>
    <rect x="-90" y="-15" width="20" height="30" rx="4" fill="#475569"/>
    <circle cx="-80" cy="0" r="8" fill="#94a3b8"/>
    <rect x="60" y="-20" width="45" height="40" rx="6" fill="url(#cameraGradient)" stroke="#334155" stroke-width="3"/>
    <line x1="70" y1="-10" x2="95" y2="-10" stroke="#64748b" stroke-width="3" stroke-linecap="round"/>
    <line x1="70" y1="0" x2="95" y2="0" stroke="#64748b" stroke-width="3" stroke-linecap="round"/>
    <line x1="70" y1="10" x2="95" y2="10" stroke="#64748b" stroke-width="3" stroke-linecap="round"/>
    <circle cx="-50" cy="-65" r="8" fill="#ef4444"/>
    <circle cx="-50" cy="-65" r="4" fill="#fca5a5">
      <animate attributeName="opacity" values="1;0.3;1" dur="1.5s" repeatCount="indefinite"/>
    </circle>
  </g>
  
  <circle cx="256" cy="140" r="25" fill="#22c55e" stroke="#16a34a" stroke-width="3"/>
  <path d="M245 140 L253 148 L270 131" stroke="#fff" stroke-width="5" stroke-linecap="round" stroke-linejoin="round" fill="none"/>
</svg>