<svg xmlns="http://www.w3.org/2000/svg" viewBox="0 0 100 100">
  <defs>
    <linearGradient id="metalGrad" x1="0%" y1="0%" x2="0%" y2="100%">
      <stop offset="0%" style="stop-color:#64748b"/>
      <stop offset="100%" style="stop-color:#334155"/>
    </linearGradient>
    <linearGradient id="glassGrad" x1="0%" y1="0%" x2="0%" y2="100%">
      <stop offset="0%" style="stop-color:#0ea5c9"/>
      <stop offset="100%" style="stop-color:#0891b2"/>
    </linearGradient>
  </defs>
  
  <circle cx="50" cy="50" r="47" fill="#2d3748" stroke="#1e293b" stroke-width="1"/>
  <circle cx="50" cy="50" r="42" fill="url(#metalGrad)"/>
  <circle cx="50" cy="50" r="36" fill="#1e293b"/>
  <circle cx="50" cy="50" r="30" fill="url(#glassGrad)"/>
  <circle cx="50" cy="50" r="22" fill="#0ea5c9"/>
  <circle cx="50" cy="50" r="14" fill="#0f172a"/>
  
  <g fill="#1e293b" opacity="0.7">
    <polygon points="50,36 58,28 42,28"/>
    <polygon points="62,43 72,38 68,52"/>
    <polygon points="62,57 72,62 68,48"/>
    <polygon points="50,64 58,72 42,72"/>
    <polygon points="38,57 28,62 32,48"/>
    <polygon points="38,43 28,38 32,52"/>
  </g>
  
  <ellipse cx="40" cy="40" rx="6" ry="6" fill="white" opacity="0.7"/>
  <ellipse cx="58" cy="55" rx="3" ry="3" fill="white" opacity="0.4"/>
</svg>
